<?xml version="1.0" encoding="UTF-8"?>
<svg width="100px" height="100px" viewBox="0 0 100 100" version="1.1" xmlns="http://www.w3.org/2000/svg" xmlns:xlink="http://www.w3.org/1999/xlink">
    <title>launchScreen</title>
    <g id="launchScreen" stroke="none" stroke-width="1" fill="none" fill-rule="evenodd">
        <path d="M50,2 C77.6142375,2 100,24.3857625 100,52 C100,73.2526931 86.7402992,91.4084172 68.0424216,98.6456483 C66.5431651,96.329828 65.4168489,94.6549229 65.1875949,94.3150413 L65.1495306,94.2586661 C65.1446906,94.2515105 57.0425191,81.7252691 56.4401574,73.5562612 C55.4439793,60.0464585 79.6610014,73.5932434 85.4830417,52.0522074 C86.8426297,47.0218513 85.5204547,44.826124 81.5165164,45.4650253 C56.9403554,38.8838351 67.4685814,27.6633748 40.6154864,30.3893994 C37.2656786,26.7964665 33.787436,25 30.1807586,25 C25.8194977,25 26.8519695,35.2764198 26.8519695,35.2764198 C19.1204775,43.3215005 12.4349531,57.2893353 6.79539627,77.1799241 C2.47505385,69.786011 1.12447625e-15,61.1820454 0,52 C-3.38176876e-15,24.3857625 22.3857625,2 50,2 Z" id="Combined-Shape" fill="#DD4C4F"></path>
    </g>
</svg>